<?xml version="1.0" encoding="utf-8"?>
<!-- Generator: Adobe Illustrator 19.0.0, SVG Export Plug-In . SVG Version: 6.00 Build 0)  -->
<svg version="1.1" id="Capa_1" xmlns="http://www.w3.org/2000/svg" xmlns:xlink="http://www.w3.org/1999/xlink" x="0px" y="0px"
	 viewBox="0 0 32 32" style="enable-background:new 0 0 32 32;" xml:space="preserve" width="32" height="32">
<style type="text/css">
	.st0{fill:#5454dd;}
	.st2{fill:#FFFFFF;}
</style>
<path class="st0" d="M23.7,3.3c-4.4-4.4-11.5-4.4-15.9,0c-3.9,3.9-4.4,11.4-1,15.9l9,13l9-13C28,14.7,27.6,7.2,23.7,3.3L23.7,3.3z"
	/>
<path class="st2" d="M24.6,10.7c0,0.1-0.1,0.2-0.2,0.3l-11.2,4.4v5.5c0,0.6-0.5,1.1-1.1,1.1c-0.3,0-0.5-0.1-0.7-0.2
	c0,0-0.1,0-0.1-0.1c-0.2-0.2-0.3-0.5-0.3-0.8V4.4c0-0.3,0.1-0.5,0.3-0.7c0-0.1,0.1-0.1,0.2-0.2c0.2-0.2,0.4-0.2,0.7-0.2
	c0.6,0,1.1,0.5,1.1,1.1v0.8l11.2,5.2C24.5,10.5,24.6,10.6,24.6,10.7z"/>
</svg>
